#!OML:ASF H:\ManfredETheater\Project 1\Capture day 1\Session 1\subject.ASF
:FULLY-SPECIFIED
:DEGREES
129
root 6.23464 13.3335 -11.3389 -111.968 -77.1716 131.245
lowerback 46.1479 -1.51505 -2.91431
upperback 9.58407 -5.27262 -3.55143
thorax -10.5419 -2.8542 0.135606
lowerneck 0.314288 -12.9645 -10.7356
upperneck -19.874 -15.9817 22.3493
head -2.97346 -9.25807 8.83646
rclavicle -4.37326e-014 2.38542e-015
rhumerus -21.3882 -10.4155 -65.3256
rradius 43.8053
rwrist -2.54752
rhand -27.8656 -0.576926
rfingers 7.12502
rthumb -1.25609 -30.553
lclavicle -4.37326e-014 2.38542e-015
lhumerus -16.9802 3.62215 80.9343
lradius 89.6516
lwrist -8.6264
lhand -44.8599 -13.5933
lfingers 7.12502
lthumb -17.6489 15.6257
rfemur -91.4515 -33.318 15.4615
rtibia 87.1837
rfoot -8.51277 -15.8353
rtoes -13.0497
lfemur -43.8737 16.0349 5.31275
ltibia 67.8811
lfoot -21.5007 -1.78305
ltoes -39.008
130
root 6.06747 13.3768 -11.7537 -114.855 -75.7966 133.767
lowerback 45.9702 -1.60231 -3.09718
upperback 9.17048 -5.50026 -3.89688
thorax -10.9976 -2.9247 -0.0262655
lowerneck -0.141616 -12.8327 -10.7906
upperneck -20.3279 -15.7776 22.4265
head -3.05077 -9.17636 8.88156
rclavicle -5.36719e-014 -5.64548e-014
rhumerus -19.5502 -10.802 -64.1364
rradius 43.3486
rwrist -3.16948
rhand -28.2633 -1.18613
rfingers 7.12502
rthumb -1.64021 -31.1596
lclavicle -5.36719e-014 -5.64548e-014
lhumerus -18.7135 4.51759 81.0169
lradius 90.0568
lwrist -9.06453
lhand -44.7972 -15.1324
lfingers 7.12502
lthumb -17.5885 14.092
rfemur -91.4544 -32.5008 16.4847
rtibia 88.804
rfoot -10.9328 -16.4936
rtoes -15.9875
lfemur -40.3914 13.2909 6.55511
ltibia 65.3994
lfoot -18.9688 0.147655
ltoes -40.0262
131
root 5.88774 13.4293 -12.1655 -117.566 -74.0178 136.318
lowerback 45.4236 -1.51409 -3.51921
upperback 8.794 -5.62534 -4.33354
thorax -11.3033 -2.95234 -0.224538
lowerneck -0.554664 -12.6974 -10.8336
upperneck -20.7804 -15.5665 22.5254
head -3.13509 -9.09494 8.93674
rclavicle 5.00937e-014 6.75868e-014
rhumerus -17.5096 -12.1697 -63.1142
rradius 42.8703
rwrist -3.19613
rhand -28.4874 -1.50329
rfingers 7.12502
rthumb -1.85661 -31.475
lclavicle 5.00937e-014 6.75868e-014
lhumerus -20.3141 5.35159 81.244
lradius 90.5428
lwrist -9.66502
lhand -45.038 -16.2315
lfingers 7.12502
lthumb -17.8202 12.972
rfemur -91.4709 -31.5486 17.3594
rtibia 90.1949
rfoot -13.6332 -16.2242
rtoes -17.5992
lfemur -36.8958 10.3077 7.43748
ltibia 62.8157
lfoot -16.0056 1.28454
ltoes -38.5941
132
root 5.70546 13.4972 -12.5831 -119.004 -72.1828 137.736
lowerback 44.5741 -1.48033 -3.9507
upperback 8.44345 -5.78432 -4.7371
thorax -11.4854 -2.99787 -0.377153
lowerneck -0.920917 -12.5455 -10.9067
upperneck -21.1822 -15.3518 22.4928
head -3.22592 -8.99679 8.95755
rclavicle -2.22639e-014 -1.31198e-014
rhumerus -15.4497 -12.7489 -62.0785
rradius 42.6939
rwrist -3.88111
rhand -29.0755 -1.86771
rfingers 7.12502
rthumb -2.42467 -31.8337
lclavicle -2.22639e-014 -1.31198e-014
lhumerus -21.8941 5.8666 81.4665
lradius 91.2407
lwrist -9.91345
lhand -45.687 -15.8497
lfingers 7.12502
lthumb -18.4446 13.2958
rfemur -91.3705 -30.8312 18.035
rtibia 91.3732
rfoot -16.3399 -15.5726
rtoes -18.3949
lfemur -33.93 7.07499 7.7172
ltibia 60.2253
lfoot -12.4309 3.31597
ltoes -39.5119
133
root 5.51987 13.5649 -13.0107 -121.217 -70.0309 139.924
lowerback 43.6288 -1.10142 -4.71675
upperback 8.09782 -5.66775 -5.11039
thorax -11.5878 -2.92296 -0.456212
lowerneck -1.2711 -12.4612 -11.0342
upperneck -21.4503 -15.2396 22.4383
head -3.26114 -8.93582 8.96221
rclavicle 1.82882e-014 4.9895e-014
rhumerus -13.3435 -13.1767 -61.1466
rradius 42.6958
rwrist -4.76747
rhand -30.0191 -2.10896
rfingers 7.12502
rthumb -3.33594 -32.0626
lclavicle 1.82882e-014 4.9895e-014
lhumerus -23.2578 6.18926 81.7577
lradius 91.7862
lwrist -9.89393
lhand -45.9813 -16.0173
lfingers 7.12502
lthumb -18.7277 13.1011
rfemur -91.045 -29.7116 18.631
rtibia 92.4103
rfoot -18.4959 -15.4079
rtoes -19.6165
lfemur -30.7787 3.96985 7.80625
ltibia 57.6162
lfoot -8.50495 4.75868
ltoes -39.5296
134
root 5.33126 13.6316 -13.4158 -122.265 -67.7854 140.87
lowerback 42.5964 -0.981347 -5.22637
upperback 7.76432 -5.74934 -5.60164
thorax -11.6777 -2.94111 -0.70436
lowerneck -1.72941 -12.371 -11.3976
upperneck -21.437 -15.1404 22.3035
head -3.18153 -8.83661 8.94476
rclavicle -5.1684e-015 5.96354e-016
rhumerus -11.1896 -13.575 -60.1906
rradius 42.8001
rwrist -4.52001
rhand -30.3963 -2.544
rfingers 7.12502
rthumb -3.70013 -32.4916
lclavicle -5.1684e-015 5.96354e-016
lhumerus -24.5288 6.68851 82.1405
lradius 92.2198
lwrist -9.76271
lhand -46.0021 -16.0855
lfingers 7.12502
lthumb -18.7477 13.0311
rfemur -90.6553 -29.1959 19.0397
rtibia 93.2916
rfoot -20.3542 -15.0098
rtoes -20.0741
lfemur -27.9986 0.0790731 7.35861
ltibia 54.9998
lfoot -3.67952 6.02419
ltoes -39.7562
135
root 5.14475 13.6918 -13.8073 -121.703 -65.6953 139.937
lowerback 41.9958 -1.10648 -5.61913
upperback 7.38583 -6.10441 -6.04868
thorax -11.9508 -3.07239 -0.830605
lowerneck -2.17666 -12.3021 -11.7361
upperneck -21.3638 -15.0881 21.9698
head -3.10465 -8.74323 8.85619
rclavicle 2.68359e-014 -7.13637e-014
rhumerus -9.02777 -13.7705 -59.1782
rradius 43.2313
rwrist -4.59006
rhand -30.3312 -3.02617
rfingers 7.12502
rthumb -3.63731 -32.9749
lclavicle 2.68359e-014 -7.13637e-014
lhumerus -25.7331 6.80829 82.5329
lradius 92.4662
lwrist -8.79142
lhand -46.2373 -16.6153
lfingers 7.12502
lthumb -18.9739 12.4792
rfemur -90.179 -29.904 19.2247
rtibia 94.0524
rfoot -22.3319 -13.8782
rtoes -19.9652
lfemur -25.8321 -5.49416 6.30976
ltibia 52.4567
lfoot 2.52447 7.81927
ltoes -39.0749
136
root 4.95385 13.7679 -14.2023 -123.38 -64.1488 141.063
lowerback 41.7141 -1.22775 -5.24433
upperback 7.00567 -6.13398 -6.35659
thorax -12.3868 -3.07635 -1.33107
lowerneck -2.52003 -12.2569 -12.0963
upperneck -21.2114 -15.0773 21.5678
head -3.02158 -8.66198 8.74956
rclavicle -1.74931e-014 -4.96962e-016
rhumerus -6.96975 -13.6986 -58.2853
rradius 43.8431
rwrist -4.44428
rhand -30.255 -2.82296
rfingers 7.12502
rthumb -3.56369 -32.7729
lclavicle -1.74931e-014 -4.96962e-016
lhumerus -26.967 6.85885 82.8367
lradius 92.5526
lwrist -7.64712
lhand -46.1986 -16.9374
lfingers 7.12502
lthumb -18.9367 12.1608
rfemur -88.6886 -29.7977 19.8827
rtibia 94.5526
rfoot -24.6688 -13.0491
rtoes -20.1468
lfemur -23.2119 -10.7113 6.11797
ltibia 49.9862
lfoot 10.0592 9.31991
ltoes -35.1265
